<?xml version="1.0" standalone="no"?>
<!DOCTYPE svg PUBLIC "-//W3C//DTD SVG 20010904//EN"
 "http://www.w3.org/TR/2001/REC-SVG-20010904/DTD/svg10.dtd">
<svg version="1.0" xmlns="http://www.w3.org/2000/svg"
 width="115.000000pt" height="58.000000pt" viewBox="0 0 115.000000 58.000000"
 preserveAspectRatio="xMidYMid meet">

<g transform="translate(0.000000,58.000000) scale(0.100000,-0.100000)"
fill="#000000" stroke="none">
<path d="M246 469 c-156 -16 -239 -41 -234 -68 8 -38 127 -66 355 -83 l162
-12 3 -27 3 -27 62 36 c35 21 63 39 63 42 0 3 -28 22 -62 43 l-63 37 -3 -27
-4 -26 -156 6 c-201 7 -304 29 -276 57 18 18 155 41 294 49 132 8 133 8 35 8
-55 0 -136 -3 -179 -8z"/>
<path d="M678 473 c28 -2 76 -2 105 0 28 2 5 3 -53 3 -58 0 -81 -1 -52 -3z"/>
<path d="M865 463 c105 -13 168 -27 187 -42 l21 -18 -34 -12 c-35 -12 -180
-29 -284 -34 -54 -2 -60 -4 -63 -24 -4 -27 -8 -27 148 -12 190 17 317 52 307
82 -9 30 -161 67 -262 65 -29 -1 -37 -3 -20 -5z"/>
<path d="M10 185 c0 -8 7 -15 15 -15 12 0 15 -13 15 -60 0 -47 3 -60 15 -60
12 0 15 13 15 60 0 33 4 60 10 60 6 0 10 7 10 15 0 11 -11 15 -40 15 -29 0
-40 -4 -40 -15z"/>
<path d="M214 186 c-3 -7 -4 -40 -2 -72 l3 -59 40 0 40 0 3 58 c2 35 -2 64 -9
73 -15 18 -68 18 -75 0z m54 -63 c-2 -27 -7 -48 -13 -48 -5 0 -11 21 -13 48
-3 38 0 47 13 47 13 0 16 -9 13 -47z"/>
<path d="M412 128 l3 -73 40 0 40 0 3 73 c2 57 0 73 -10 70 -8 -3 -14 -26 -16
-61 -2 -42 -7 -57 -17 -57 -12 0 -15 14 -15 60 0 47 -3 60 -15 60 -13 0 -15
-13 -13 -72z"/>
<path d="M620 126 c0 -61 3 -76 15 -76 9 0 15 9 15 25 0 32 18 32 30 0 5 -14
16 -25 24 -25 10 0 13 6 9 15 -3 9 -6 42 -7 73 l-1 57 -42 3 -43 3 0 -75z m60
20 c0 -14 -7 -26 -18 -28 -15 -4 -17 0 -14 23 5 35 32 39 32 5z"/>
<path d="M877 194 c-11 -12 -8 -26 4 -18 6 3 15 0 21 -7 7 -11 8 -10 6 5 -3
21 -20 31 -31 20z"/>
<path d="M1060 181 c0 -22 27 -36 33 -18 2 7 7 9 11 6 3 -3 -5 -26 -19 -50
-35 -62 -33 -69 20 -69 38 0 45 3 45 19 0 25 -20 38 -31 20 -4 -7 -11 -11 -14
-8 -3 4 6 26 20 50 35 62 33 69 -20 69 -37 0 -45 -3 -45 -19z"/>
<path d="M852 115 c-15 -58 -15 -65 3 -65 8 0 15 5 15 10 0 6 9 10 20 10 11 0
20 -4 20 -10 0 -5 7 -10 15 -10 18 0 18 0 4 56 -10 37 -15 44 -30 39 -11 -4
-19 -2 -19 4 0 28 -17 6 -28 -34z m48 -6 c0 -5 -4 -9 -10 -9 -5 0 -10 7 -10
16 0 8 5 12 10 9 6 -3 10 -10 10 -16z"/>
</g>
</svg>
