<?xml version="1.0" standalone="no"?>
<!DOCTYPE svg PUBLIC "-//W3C//DTD SVG 20010904//EN"
 "http://www.w3.org/TR/2001/REC-SVG-20010904/DTD/svg10.dtd">
<svg version="1.0" xmlns="http://www.w3.org/2000/svg"
 width="3400.000000pt" height="1903.000000pt" viewBox="0 0 3400.000000 1903.000000"
 preserveAspectRatio="xMidYMid meet">

<g transform="translate(0.000000,1903.000000) scale(0.100000,-0.100000)"
fill="#000000" stroke="none">
<path d="M14828 15509 l-3038 -1519 0 -1738 0 -1737 867 -434 868 -433 867
433 868 434 2165 -1083 c1191 -595 2172 -1082 2180 -1082 8 0 598 291 1310
647 l1295 648 0 220 0 220 -1300 1300 -1300 1300 0 1300 0 1300 -872 872 -873
871 -3037 -1519z m3476 222 c236 -236 426 -433 423 -437 -3 -5 -393 -202 -866
-439 l-861 -430 2172 -2172 2171 -2171 -869 -435 -869 -435 -2172 2171 -2173
2172 -867 -433 -866 -434 -434 434 -433 433 2602 1302 c1432 716 2605 1302
2608 1302 3 1 198 -192 434 -428z"/>
<path d="M9100 6518 c-320 -30 -684 -155 -965 -333 -371 -234 -648 -538 -839
-924 -160 -325 -229 -624 -229 -1001 0 -225 17 -366 68 -565 233 -907 1026
-1588 1964 -1686 143 -15 461 -6 591 16 360 60 695 207 1002 438 587 441 926
1154 895 1883 -25 579 -240 1082 -636 1488 -200 205 -380 335 -642 465 -375
187 -778 260 -1209 219z m575 -367 c531 -100 999 -420 1286 -881 255 -411 345
-916 248 -1394 -67 -333 -248 -676 -489 -930 -252 -266 -589 -462 -945 -550
-199 -49 -519 -63 -724 -32 -816 125 -1471 761 -1612 1566 -70 400 -9 821 171
1179 290 578 825 966 1457 1056 143 21 464 13 608 -14z"/>
<path d="M13120 4990 c0 -972 4 -1514 11 -1578 29 -267 128 -530 282 -749 80
-113 257 -291 372 -371 165 -117 395 -218 584 -257 188 -39 448 -39 638 1 241
49 483 167 686 332 257 208 464 555 531 887 33 167 36 271 36 1743 l0 1472
-180 0 -180 0 -2 -1547 -3 -1548 -27 -98 c-33 -118 -105 -274 -178 -383 -67
-100 -222 -256 -320 -321 -218 -146 -433 -213 -686 -213 -322 0 -618 124 -849
355 -152 152 -264 343 -322 550 l-28 100 -3 1553 -2 1552 -180 0 -180 0 0
-1480z"/>
<path d="M2000 6285 l0 -175 815 0 815 0 0 -2030 0 -2030 175 0 175 0 0 2030
0 2030 820 0 820 0 0 175 0 175 -1810 0 -1810 0 0 -175z"/>
<path d="M17840 4255 l0 -2205 180 0 180 0 0 440 0 440 833 0 c457 1 904 5
992 10 167 9 288 31 414 74 41 15 77 22 80 18 3 -5 175 -228 381 -495 l374
-487 224 0 223 0 -63 82 c-35 45 -235 302 -445 572 l-382 490 67 44 c342 229
613 608 716 1004 45 175 59 303 53 508 -3 135 -10 215 -26 295 -140 695 -677
1232 -1386 1387 -99 22 -111 22 -1257 25 l-1158 4 0 -2206z m2310 1841 c285
-55 539 -187 746 -388 252 -245 392 -538 424 -889 49 -528 -219 -1047 -685
-1329 -161 -97 -317 -153 -534 -190 -112 -19 -162 -20 -1010 -20 l-891 0 0
1420 0 1421 928 -3 c849 -3 935 -5 1022 -22z"/>
<path d="M24606 5928 c-145 -293 -640 -1286 -1100 -2206 l-836 -1672 196 2
196 3 230 453 230 452 1554 0 1554 0 227 -455 228 -455 192 0 c106 0 193 3
193 7 0 3 -496 995 -1102 2205 l-1103 2198 -198 0 -199 0 -262 -532z m932
-793 l462 -925 -925 0 c-509 0 -925 2 -925 5 0 11 914 1845 919 1845 3 0 214
-416 469 -925z m775 -1550 l137 -275 -1380 0 -1380 0 137 275 138 275 1105 0
1105 0 138 -275z"/>
<path d="M28380 6285 l0 -175 1613 -2 1613 -3 -1613 -1813 -1613 -1812 0 -215
0 -215 1810 0 1810 0 0 170 0 170 -1614 2 -1614 3 1614 1815 1613 1815 0 218
1 217 -1810 0 -1810 0 0 -175z"/>
</g>
</svg>
