<?xml version="1.0" standalone="no"?>
<!DOCTYPE svg PUBLIC "-//W3C//DTD SVG 20010904//EN"
 "http://www.w3.org/TR/2001/REC-SVG-20010904/DTD/svg10.dtd">
<svg version="1.0" xmlns="http://www.w3.org/2000/svg"
 width="115.000000pt" height="58.000000pt" viewBox="0 0 115.000000 58.000000"
 preserveAspectRatio="xMidYMid meet">

<g transform="translate(0.000000,58.000000) scale(0.100000,-0.100000)"
fill="#000000" stroke="none">
<path d="M488 517 l-107 -52 0 -68 c-1 -67 -1 -67 32 -83 31 -15 36 -15 65 0
31 16 33 16 112 -24 l80 -40 50 25 c28 14 50 29 50 33 0 4 -22 30 -50 57 -46
46 -50 53 -50 97 0 42 -4 52 -32 78 -18 16 -35 29 -38 29 -3 0 -53 -24 -112
-52z m133 6 c10 -11 10 -17 3 -20 -6 -2 -20 -10 -30 -18 -18 -14 -15 -19 59
-87 43 -40 77 -76 77 -80 0 -4 -12 -14 -27 -22 -28 -15 -29 -14 -110 67 l-82
81 -34 -16 c-32 -15 -36 -15 -51 0 -15 15 -10 20 76 64 51 26 96 47 99 47 4 1
13 -6 20 -16z"/>
<path d="M35 171 c30 -6 30 -7 35 -86 l6 -80 4 80 c5 79 5 80 35 86 19 4 5 7
-40 7 -45 0 -59 -3 -40 -7z"/>
<path d="M225 155 c-54 -54 -13 -145 65 -145 30 0 80 53 80 83 0 14 -12 39
-26 56 -33 40 -83 43 -119 6z m88 4 c29 -16 37 -28 37 -63 0 -40 -26 -66 -67
-66 -67 0 -96 68 -48 115 27 28 45 31 78 14z"/>
<path d="M432 113 c-2 -68 0 -74 24 -90 24 -15 29 -15 53 -2 24 14 26 19 27
89 1 72 0 73 -3 10 -4 -71 -14 -90 -48 -90 -34 0 -44 19 -48 90 l-3 65 -2 -72z"/>
<path d="M607 173 c-11 -11 -8 -153 3 -153 6 0 10 7 10 15 0 25 79 20 108 -7
l25 -23 -16 25 c-14 22 -14 27 -1 44 37 51 -4 106 -77 106 -25 0 -49 -3 -52
-7z m108 -27 c41 -41 11 -86 -57 -86 l-38 0 0 55 0 55 35 0 c25 0 44 -8 60
-24z"/>
<path d="M829 99 c-22 -45 -38 -83 -35 -86 2 -3 9 5 16 16 9 18 20 21 69 21
45 0 60 -4 65 -16 4 -9 9 -14 12 -12 7 7 -68 158 -78 158 -4 0 -26 -36 -49
-81z m66 31 l16 -30 -31 0 c-16 0 -30 2 -30 5 0 7 23 55 26 55 2 0 10 -13 19
-30z m30 -60 c4 -6 -13 -10 -44 -10 -28 0 -51 5 -51 10 0 13 87 13 95 0z"/>
<path d="M1058 173 c34 -2 62 -7 62 -10 0 -3 -27 -34 -60 -70 -33 -35 -58 -68
-55 -74 8 -12 135 -12 135 1 0 6 -27 10 -61 10 l-61 0 61 66 c34 37 61 71 61
75 0 5 -33 8 -72 7 l-73 -2 63 -3z"/>
</g>
</svg>
