<?xml version="1.0" standalone="no"?>
<!DOCTYPE svg PUBLIC "-//W3C//DTD SVG 20010904//EN"
 "http://www.w3.org/TR/2001/REC-SVG-20010904/DTD/svg10.dtd">
<svg version="1.0" xmlns="http://www.w3.org/2000/svg"
 width="115.000000pt" height="58.000000pt" viewBox="0 0 115.000000 58.000000"
 preserveAspectRatio="xMidYMid meet">

<g transform="translate(0.000000,58.000000) scale(0.100000,-0.100000)"
fill="#000000" stroke="none">
<path d="M518 434 l-68 -34 0 -44 c0 -49 17 -62 63 -51 16 4 39 -1 65 -14 48
-25 71 -26 98 -7 18 14 18 16 -13 48 -25 25 -33 43 -33 69 0 31 -24 70 -41 69
-2 -1 -34 -17 -71 -36z m88 5 c4 -7 -1 -16 -11 -21 -15 -9 -11 -16 31 -60 47
-47 48 -50 29 -64 -18 -13 -23 -10 -70 36 -43 43 -56 50 -77 45 -50 -13 -38
15 19 44 66 34 69 35 79 20z"/>
<path d="M592 169 c-2 -45 -2 -46 28 -41 17 2 38 -2 48 -9 15 -13 16 -12 4 3
-9 11 -10 18 -2 23 5 3 10 12 10 18 0 7 -5 4 -11 -5 -6 -11 -22 -18 -39 -18
-26 0 -29 4 -33 38 -3 35 -4 35 -5 -9z"/>
<path d="M756 202 c-3 -5 1 -9 9 -9 8 0 12 4 9 9 -3 4 -7 8 -9 8 -2 0 -6 -4
-9 -8z"/>
<path d="M909 193 c-13 -16 -12 -17 4 -4 16 13 21 21 13 21 -2 0 -10 -8 -17
-17z"/>
<path d="M331 164 c0 -11 3 -14 6 -6 3 7 2 16 -1 19 -3 4 -6 -2 -5 -13z"/>
<path d="M431 164 c0 -11 3 -14 6 -6 3 7 2 16 -1 19 -3 4 -6 -2 -5 -13z"/>
<path d="M780 165 c0 -8 4 -15 10 -15 5 0 7 7 4 15 -4 8 -8 15 -10 15 -2 0 -4
-7 -4 -15z"/>
<path d="M862 138 c-18 -18 -14 -28 11 -27 17 1 18 2 4 6 -14 4 -16 8 -6 19
14 17 8 19 -9 2z"/>
<path d="M352 124 c10 -10 20 -16 22 -13 3 3 -5 11 -17 18 -21 13 -21 12 -5
-5z"/>
<path d="M406 125 c-11 -8 -15 -15 -9 -15 6 0 16 7 23 15 16 19 11 19 -14 0z"/>
<path d="M743 133 c15 -2 37 -2 50 0 12 2 0 4 -28 4 -27 0 -38 -2 -22 -4z"/>
</g>
</svg>
