<?xml version="1.0" standalone="no"?>
<!DOCTYPE svg PUBLIC "-//W3C//DTD SVG 20010904//EN"
 "http://www.w3.org/TR/2001/REC-SVG-20010904/DTD/svg10.dtd">
<svg version="1.0" xmlns="http://www.w3.org/2000/svg"
 width="115.000000pt" height="58.000000pt" viewBox="0 0 115.000000 58.000000"
 preserveAspectRatio="xMidYMid meet">

<g transform="translate(0.000000,58.000000) scale(0.100000,-0.100000)"
fill="#000000" stroke="none">
<path d="M502 473 l-102 -46 0 -54 c0 -48 3 -55 25 -65 20 -9 34 -9 59 0 29
11 40 9 99 -18 37 -16 73 -30 81 -30 19 0 86 31 86 40 0 3 -20 26 -45 50 -37
36 -45 51 -45 80 0 26 -7 43 -28 63 l-27 26 -103 -46z m117 4 c8 -11 5 -17
-16 -26 l-27 -12 73 -67 73 -67 -30 -11 c-29 -11 -33 -9 -101 53 -70 64 -72
65 -102 53 -25 -11 -33 -11 -45 1 -12 13 -3 20 69 51 96 43 91 42 106 25z"/>
<path d="M93 193 c26 -4 27 -6 29 -71 l1 -67 6 65 c6 62 7 65 36 71 20 4 8 7
-35 6 -36 0 -53 -2 -37 -4z"/>
<path d="M266 179 c-35 -28 -35 -70 0 -98 15 -12 37 -21 49 -21 35 0 75 37 75
70 0 33 -40 70 -75 70 -12 0 -34 -9 -49 -21z m94 -9 c11 -11 20 -29 20 -40 0
-28 -35 -60 -65 -60 -30 0 -65 32 -65 60 0 28 35 60 65 60 14 0 34 -9 45 -20z"/>
<path d="M542 153 c-4 -106 -82 -116 -82 -11 0 26 -4 48 -10 48 -5 0 -10 -20
-10 -45 0 -72 54 -110 94 -66 13 14 16 32 13 72 l-3 54 -2 -52z"/>
<path d="M607 193 c-11 -10 -8 -123 3 -123 6 0 10 5 10 10 0 17 72 11 93 -8
19 -16 20 -16 9 4 -7 12 -7 26 -1 35 15 25 10 57 -13 73 -22 16 -89 22 -101 9z
m81 -9 c13 -4 25 -17 29 -32 8 -32 -17 -52 -64 -52 -32 0 -33 1 -33 45 0 40 2
45 23 45 12 0 32 -3 45 -6z"/>
<path d="M805 134 c-20 -37 -34 -69 -31 -72 3 -3 8 3 12 12 7 20 103 23 122 4
7 -7 12 -9 12 -5 0 11 -61 116 -70 122 -4 3 -25 -25 -45 -61z m59 21 c16 -25
16 -25 -14 -25 -28 0 -29 1 -18 25 6 14 12 25 13 25 2 0 10 -11 19 -25z m26
-45 c0 -5 -18 -10 -40 -10 -22 0 -40 5 -40 10 0 6 18 10 40 10 22 0 40 -4 40
-10z"/>
<path d="M1008 193 c28 -2 52 -7 52 -11 0 -4 -22 -30 -50 -57 -27 -27 -50 -53
-50 -57 0 -4 28 -7 63 -6 l62 2 -52 3 c-29 2 -53 7 -53 11 1 4 23 30 50 57 28
28 50 53 50 58 0 4 -28 6 -62 5 l-63 -2 53 -3z"/>
</g>
</svg>
